<svg width="512" height="512" viewBox="0 0 512 512" fill="none" xmlns="http://www.w3.org/2000/svg">
  <!-- 背景圓形 -->
  <circle cx="256" cy="256" r="256" fill="#3563E9"/>
  
  <!-- 永續發展象徵 -->
  <path d="M256 96C238.3 96 224 110.3 224 128V224H128C110.3 224 96 238.3 96 256C96 273.7 110.3 288 128 288H224V384C224 401.7 238.3 416 256 416C273.7 416 288 401.7 288 384V288H384C401.7 288 416 273.7 416 256C416 238.3 401.7 224 384 224H288V128C288 110.3 273.7 96 256 96Z" fill="white"/>
  
  <!-- 環繞圓環 -->
  <path d="M256 64C150.3 64 64 150.3 64 256C64 361.7 150.3 448 256 448C361.7 448 448 361.7 448 256C448 150.3 361.7 64 256 64ZM256 96C344.4 96 416 167.6 416 256C416 344.4 344.4 416 256 416C167.6 416 96 344.4 96 256C96 167.6 167.6 96 256 96Z" fill="white" fill-opacity="0.3"/>
</svg> 